<?xml version="1.0" encoding="UTF-8"?>
<svg id="Layer_1" data-name="Layer 1" xmlns="http://www.w3.org/2000/svg" xmlns:xlink="http://www.w3.org/1999/xlink" viewBox="0 0 40 30">
  <defs>
    <style>
      .cls-1 {
        fill: url(#linear-gradient-2);
      }

      .cls-2 {
        fill: none;
      }

      .cls-3 {
        fill: #b1e1f1;
      }

      .cls-4 {
        fill: url(#linear-gradient);
      }

      .cls-5 {
        clip-path: url(#clippath);
      }
    </style>
    <linearGradient id="linear-gradient" x1="17.42" y1="22.56" x2="44.33" y2="22.56" gradientUnits="userSpaceOnUse">
      <stop offset="0" stop-color="#e01f27"/>
      <stop offset=".59" stop-color="#f16322"/>
      <stop offset=".6" stop-color="#f16322" stop-opacity=".82"/>
      <stop offset=".62" stop-color="#f16322" stop-opacity=".65"/>
      <stop offset=".64" stop-color="#f16322" stop-opacity=".49"/>
      <stop offset=".66" stop-color="#f16322" stop-opacity=".36"/>
      <stop offset=".69" stop-color="#f16322" stop-opacity=".25"/>
      <stop offset=".72" stop-color="#f16322" stop-opacity=".16"/>
      <stop offset=".75" stop-color="#f16322" stop-opacity=".09"/>
      <stop offset=".79" stop-color="#f16322" stop-opacity=".04"/>
      <stop offset=".84" stop-color="#f16322" stop-opacity="0"/>
      <stop offset="1" stop-color="#f16322" stop-opacity="0"/>
    </linearGradient>
    <clipPath id="clippath">
      <path class="cls-2" d="M36.29,12.34c-1.08-3.33-4.17-5.58-7.67-5.58h-1.05s0,0,0,0c-2.48.27-4.85,1.71-6.27,3.87.8-2.67,2.86-4.89,5.45-6.06C25.38,1.9,22.63.18,19.56.18c-3.51,0-6.59,2.24-7.67,5.58l-.31.94c-.05.23-.09.46-.12.69.25.02.5.07.75.14.59.16,1.12.44,1.59.81,1.46-3.72,7.17-3.57,7.83.96-1.38-3.43-6.32-3.48-6.77.47,0,0-.17,1.88-.17,1.88l-1.08-1.56c-.65-.89-1.44-1.34-2.24-1.45.02,1.84.63,3.7,1.79,5.2-1.66-1.2-2.87-2.97-3.5-4.95-1.39.62-2.43,2.21-2.18,4.12-.94-2.01.12-4.28,1.9-5.21-.06-.31-.11-.63-.15-.95-2.97.47-5.46,2.55-6.41,5.48-1.08,3.33.1,6.96,2.93,9.02l.71.51c2.18,1.27,4.98,1.5,7.42.56-2.19,1.69-5.13,2.3-7.9,1.77-.32,1.97.13,3.96,1.18,5.61h13.54c.9-1.43,1.41-3.14,1.37-4.88.51,1.56.58,3.25.24,4.88h9.6c1.28-1.99,1.66-4.48.89-6.84l-.25-.78c-.97-2.43-3.18-4.36-5.8-5.06,2.84-.09,5.66,1.21,7.59,3.36,2.1-2.12,2.87-5.25,1.93-8.16Z"/>
    </clipPath>
    <linearGradient id="linear-gradient-2" x1="-3.41" y1="28.51" x2="18.45" y2="28.51" gradientUnits="userSpaceOnUse">
      <stop offset="0" stop-color="#f16322"/>
      <stop offset=".22" stop-color="#ef5d22"/>
      <stop offset=".5" stop-color="#eb4d23"/>
      <stop offset=".81" stop-color="#e43225"/>
      <stop offset="1" stop-color="#e01f27"/>
    </linearGradient>
  </defs>
  <path class="cls-3" d="M36.29,12.34c-1.08-3.33-4.17-5.58-7.67-5.58h-1.05s0,0,0,0c-2.48.27-4.85,1.71-6.27,3.87.8-2.67,2.86-4.89,5.45-6.06C25.38,1.9,22.63.18,19.56.18c-3.51,0-6.59,2.24-7.67,5.58l-.31.94c-.05.23-.09.46-.12.69.25.02.5.07.75.14.59.16,1.12.44,1.59.81,1.46-3.72,7.17-3.57,7.83.96-1.38-3.43-6.32-3.48-6.77.47,0,0-.17,1.88-.17,1.88l-1.08-1.56c-.65-.89-1.44-1.34-2.24-1.45.02,1.84.63,3.7,1.79,5.2-1.66-1.2-2.87-2.97-3.5-4.95-1.39.62-2.43,2.21-2.18,4.12-.94-2.01.12-4.28,1.9-5.21-.06-.31-.11-.63-.15-.95-2.97.47-5.46,2.55-6.41,5.48-1.08,3.33.1,6.96,2.93,9.02l.71.51c2.18,1.27,4.98,1.5,7.42.56-2.19,1.69-5.13,2.3-7.9,1.77-.32,1.97.13,3.96,1.18,5.61h13.54c.9-1.43,1.41-3.14,1.37-4.88.51,1.56.58,3.25.24,4.88h9.6c1.28-1.99,1.66-4.48.89-6.84l-.25-.78c-.97-2.43-3.18-4.36-5.8-5.06,2.84-.09,5.66,1.21,7.59,3.36,2.1-2.12,2.87-5.25,1.93-8.16Z"/>
  <path class="cls-4" d="M26.46,27.21h-.92l-8.67-11.91h-2.61v1.31l3.08,4.38,5.66,7.72s.6,1.02,1.86,1.1c.15.02.25.01.25.01h12.45v-2.61h-11.1Z"/>
  <g class="cls-5">
    <path class="cls-1" d="M7.67,27.21H-.42c0,1.3,1.3,2.61,4.09,2.61.13,0,12.92,0,12.92,0v-2.61H7.67Z"/>
  </g>
</svg>